<svg xmlns="http://www.w3.org/2000/svg" viewBox="0 0 71.76 75.26"><defs><style>.cls-1{fill:none;stroke:#24b482;stroke-linecap:round;stroke-linejoin:round;stroke-width:5.25px;}</style></defs><g id="Layer_2" data-name="Layer 2"><g id="Layer_1-2" data-name="Layer 1"><path class="cls-1" d="M25.93,68.34V57.6a5,5,0,0,1,5-5H41a5,5,0,0,1,5,5h0V68.37a4.28,4.28,0,0,0,4.21,4.27H57a12.1,12.1,0,0,0,12.16-12h0V30.06a8.54,8.54,0,0,0-3.37-6.66L42.74,5A11.16,11.16,0,0,0,28.93,5L6,23.43A8.45,8.45,0,0,0,2.63,30.1V60.6a12.1,12.1,0,0,0,12.15,12h6.74a4.32,4.32,0,0,0,4.34-4.3h0"/></g></g></svg>